<?xml version="1.0" encoding="UTF-8"?>
<svg version="1.1" xmlns="http://www.w3.org/2000/svg" width="512" height="512">
<path d="M0 0 C1.1957666 0.01587158 2.3915332 0.03174316 3.62353516 0.0480957 C57.05277762 1.37281655 110.15196779 22.2003773 150.9375 56.5625 C151.73752441 57.22934814 151.73752441 57.22934814 152.55371094 57.90966797 C163.12448986 66.73240676 173.11370429 75.95629756 181.9375 86.5625 C182.35193359 87.05250488 182.76636719 87.54250977 183.19335938 88.04736328 C203.11027853 111.69343761 231.9375 151.1885304 231.9375 183.5625 C232.5975 183.5625 233.2575 183.5625 233.9375 183.5625 C234.03933594 182.59957031 234.14117187 181.63664063 234.24609375 180.64453125 C234.91921448 175.97717064 236.41878306 171.67853131 238 167.25 C238.465271 165.93938599 238.465271 165.93938599 238.93994141 164.60229492 C248.18084083 139.05487577 261.15480944 115.90415574 277.9375 94.5625 C278.68644531 93.60730469 279.43539063 92.65210938 280.20703125 91.66796875 C292.93383188 76.05509049 307.47654416 61.23013773 323.9375 49.5625 C324.55367188 49.11793457 325.16984375 48.67336914 325.8046875 48.21533203 C366.76995328 18.75612358 415.10849435 0.70333581 465.875 0 C467.59940308 -0.04036377 467.59940308 -0.04036377 469.35864258 -0.08154297 C477.20312081 -0.04479513 477.20312081 -0.04479513 480.69140625 2.83984375 C481.92337475 5.531637 482.38953369 6.8057852 481.9375 9.6875 C481.855 10.35007813 481.7725 11.01265625 481.6875 11.6953125 C480.63662988 14.31154123 479.33411683 15.09624841 476.9375 16.5625 C474.20214844 17.02319336 474.20214844 17.02319336 471.046875 17.15234375 C469.87479492 17.21188232 468.70271484 17.2714209 467.49511719 17.33276367 C466.23860352 17.38795166 464.98208984 17.44313965 463.6875 17.5 C438.70696935 18.94404183 414.32502107 23.40238758 390.9375 32.5625 C393.13109482 34.75609482 395.35632257 35.77389022 398.14208984 37.07373047 C421.82978838 48.18505536 439.28002569 67.35443106 448.9375 91.5625 C453.25715433 103.64128264 455.31314022 114.9298287 455.25 127.75 C455.24436035 128.9460083 455.2387207 130.1420166 455.23291016 131.37426758 C454.84750529 159.4649399 443.33636944 182.54710334 424.1875 202.6875 C403.47689515 222.82458041 376.52602363 231.21063539 348.11328125 230.8359375 C332.99507781 230.3607738 319.33260233 226.44267777 305.9375 219.5625 C304.89335937 219.03914062 303.84921875 218.51578125 302.7734375 217.9765625 C281.70005885 206.57803315 267.00180215 187.42183841 257.9375 165.5625 C249.09578181 186.88295521 243.9151572 209.64058347 242.45703125 232.66796875 C242.33956543 234.50427856 242.33956543 234.50427856 242.21972656 236.37768555 C242.07567557 238.79342073 241.95064227 241.21038167 241.84667969 243.62817383 C241.78512695 244.73056396 241.72357422 245.8329541 241.66015625 246.96875 C241.61640869 247.95166016 241.57266113 248.93457031 241.52758789 249.94726562 C240.78717048 253.22875145 239.5216102 254.47070238 236.9375 256.5625 C234.9375 257.09375 234.9375 257.09375 232.9375 257.0625 C231.9475 257.07796875 231.9475 257.07796875 230.9375 257.09375 C227.96496966 256.30417163 226.85095543 254.95728523 224.9375 252.5625 C224.28735352 249.29223633 224.28735352 249.29223633 224.06640625 245.39453125 C223.96908284 243.94148169 223.87166693 242.48843832 223.77416992 241.03540039 C223.73004974 240.27502472 223.68592957 239.51464905 223.64047241 238.73123169 C222.15501086 213.81465525 218.22446543 188.51034596 207.9375 165.5625 C207.22787109 167.06876953 207.22787109 167.06876953 206.50390625 168.60546875 C193.81380033 195.04508508 174.90009973 215.06217578 146.9375 225.5625 C119.55671184 234.31098034 90.62871365 232.39787672 64.9375 219.5625 C40.13850127 205.97990094 21.95852693 183.55424728 14 156.5 C6.62249194 130.98264175 10.11807451 103.99745793 21.9375 80.5625 C22.47246094 79.49257812 23.00742187 78.42265625 23.55859375 77.3203125 C27.9179574 69.2706482 33.59895606 63.05812156 39.9375 56.5625 C40.59492187 55.83160156 41.25234375 55.10070312 41.9296875 54.34765625 C50.88755398 44.64009708 62.93428728 38.64691735 74.9375 33.5625 C55.40425738 20.54033825 23.99603895 18.34932513 1.05859375 17.33203125 C-0.10941772 17.27740723 -0.10941772 17.27740723 -1.30102539 17.22167969 C-2.7618894 17.15922669 -4.22344604 17.11070927 -5.68530273 17.07910156 C-9.70352776 16.92579879 -12.26257411 16.56144023 -15.0625 13.5625 C-15.8125 11.6953125 -15.8125 11.6953125 -16.0625 9.6875 C-16.165625 9.03007812 -16.26875 8.37265625 -16.375 7.6953125 C-15.05645761 -1.30373933 -7.17556403 -0.16749354 0 0 Z M347.9375 52.5625 C347.20063965 53.06475098 346.4637793 53.56700195 345.70458984 54.08447266 C323.37944322 69.31591478 302.87422111 87.64603188 286.9375 109.5625 C286.33292969 110.37203125 285.72835938 111.1815625 285.10546875 112.015625 C283.30910366 114.48930808 281.61512018 117.00645446 279.9375 119.5625 C279.26291748 120.57715332 279.26291748 120.57715332 278.57470703 121.61230469 C277.02770036 123.95710405 275.51132315 126.31956812 274 128.6875 C273.50242187 129.43999023 273.00484375 130.19248047 272.4921875 130.96777344 C268.37668064 137.54163278 268.0712766 141.69044149 269.78515625 149.3515625 C270.17420318 150.63513582 270.57975277 151.91380056 271 153.1875 C271.33390747 154.21738037 271.33390747 154.21738037 271.67456055 155.26806641 C275.5019185 166.61312267 280.85794348 176.65879929 288.9375 185.5625 C289.67613281 186.39394531 290.41476562 187.22539062 291.17578125 188.08203125 C306.12712084 204.01218195 327.1780662 213.26100116 348.9375 214.5625 C349.61683594 214.60375 350.29617188 214.645 350.99609375 214.6875 C372.75470754 215.32628499 393.82802218 206.96657708 409.9375 192.5625 C410.77023437 191.82386719 411.60296875 191.08523438 412.4609375 190.32421875 C427.06133963 176.59984075 438.05751063 155.8022555 438.9375 135.5625 C438.9890625 134.5621875 439.040625 133.561875 439.09375 132.53125 C439.77348173 107.3811759 430.06342347 85.20863621 412.875 67.0625 C403.17612039 57.58886759 391.71780749 51.06576971 378.9375 46.5625 C377.12958984 45.89541016 377.12958984 45.89541016 375.28515625 45.21484375 C363.59272353 41.79177058 357.24887301 45.99670576 347.9375 52.5625 Z M50.8125 69.1875 C35.30287656 84.86122013 27.11578436 106.00694678 26.5625 128 C27.17619584 153.53508336 37.96569505 175.38756843 56.10546875 193.109375 C70.32995894 205.4307265 89.02675069 213.72120941 107.9375 214.5625 C108.61425781 214.60246094 109.29101562 214.64242187 109.98828125 214.68359375 C134.87240385 215.45695771 156.81405002 204.88223818 174.6875 188.25 C186.08154859 176.15087414 197.61591199 156.88480915 197.34155273 139.80444336 C196.4909339 135.08466527 193.59934645 131.25554606 191 127.3125 C190.40461426 126.38373047 189.80922852 125.45496094 189.19580078 124.49804688 C184.73702528 117.60950951 180.10278567 110.94368478 174.9375 104.5625 C174.15761719 103.58023438 173.37773437 102.59796875 172.57421875 101.5859375 C160.75030208 86.97951865 147.22467223 73.51425367 131.9375 62.5625 C131.30102539 62.10294922 130.66455078 61.64339844 130.00878906 61.16992188 C100.13400765 39.73706259 77.97031367 42.91071146 50.8125 69.1875 Z " fill="#000000" transform="translate(23.0625,127.4375)"/>
<path d="M0 0 C9.25092877 -0.53823586 19.04272904 2.59693529 26.125 8.55859375 C34.9295743 16.95590801 39.89112225 25.44069958 40.2109375 37.8125 C40.07834307 48.60568649 36.42572333 57.53008678 28.8984375 65.25 C20.65880931 72.85239076 11.67978767 76.7411587 0.29296875 76.5234375 C-10.32868412 75.31052445 -20.13853757 71.00110451 -27.16796875 62.85546875 C-32.81726348 55.17761725 -35.68425081 48.04946604 -35.6015625 38.5 C-35.59189453 37.32256226 -35.59189453 37.32256226 -35.58203125 36.12133789 C-35.26143161 25.82734749 -31.55691205 17.64669982 -24.40234375 10.22265625 C-17.19453386 4.04278529 -9.28662497 1.10472862 0 0 Z M-14.4765625 25.1875 C-18.19756506 30.67800106 -20.21869554 35.48840531 -19.1015625 42.25 C-16.65603325 49.60933686 -12.849473 54.42430179 -6.1015625 58.25 C-0.3498861 60.16722547 5.67838107 60.17100569 11.2109375 57.5625 C16.75679417 54.37586865 20.79032847 50.35242088 22.8984375 44.25 C23.55211757 37.74006283 23.80526851 31.77345074 19.8984375 26.25 C15.74400513 21.26468116 10.9066855 17.88086892 4.44140625 16.86328125 C-3.68145205 16.50143349 -9.43661674 18.7475693 -14.4765625 25.1875 Z " fill="#000000" transform="translate(374.1015625,217.75)"/>
<path d="M0 0 C7.60423873 5.77427559 13.59423259 14.43150063 14.92504883 24.04174805 C15.06133067 26.28728419 15.09286428 28.50063365 15.0625 30.75 C15.05492676 31.53938965 15.04735352 32.3287793 15.03955078 33.14208984 C14.8638339 39.37683275 13.85448349 44.45552302 10.625 49.875 C10.2125 50.57753906 9.8 51.28007812 9.375 52.00390625 C2.82205059 61.81471404 -7.107968 66.46775802 -18.375 68.875 C-27.31923538 70.30430944 -37.43479512 67.32376696 -44.75 62.125 C-52.89625418 55.26771009 -58.6636961 47.56257718 -60.375 36.875 C-61.25392928 24.92494229 -59.07996952 15.21180804 -51.375 5.875 C-37.39349574 -9.20466839 -17.26435167 -11.1154045 0 0 Z M-39.078125 16.66015625 C-43.79344093 23.04209246 -44.23468143 29.17694354 -43.375 36.875 C-40.91285017 43.36998146 -36.02616007 47.74515662 -30.125 51.1875 C-23.51346468 52.84038383 -17.1927623 52.6888486 -11.1953125 49.27734375 C-6.66199739 45.78494005 -2.76875891 40.45003562 -1.375 34.875 C-0.72373456 28.36234565 -1.85578911 23.44193886 -5.375 17.875 C-10.1424683 12.57655775 -14.92484652 9.87109577 -22.0625 9.4375 C-28.60587275 9.59375965 -34.51178687 11.87387982 -39.078125 16.66015625 Z " fill="#000000" transform="translate(158.375,225.125)"/>
</svg>
